Coordinates
version=1
nRows=13
nColumns=40
inDegrees=yes

Units are S.I. units (second, meters, Newtons, ...)
If the header above contains a line with 'inDegrees', this indicates whether rotational values are in degrees (yes) or radians (no).

endheader
time	pelvis_tilt	pelvis_list	pelvis_rotation	pelvis_tx	pelvis_ty	pelvis_tz	hip_flexion_r	hip_adduction_r	hip_rotation_r	knee_angle_r	knee_angle_r_beta	ankle_angle_r	subtalar_angle_r	mtp_angle_r	hip_flexion_l	hip_adduction_l	hip_rotation_l	knee_angle_l	knee_angle_l_beta	ankle_angle_l	subtalar_angle_l	mtp_angle_l	lumbar_extension	lumbar_bending	lumbar_rotation	arm_flex_r	arm_add_r	arm_rot_r	elbow_flex_r	pro_sup_r	wrist_flex_r	wrist_dev_r	arm_flex_l	arm_add_l	arm_rot_l	elbow_flex_l	pro_sup_l	wrist_flex_l	wrist_dev_l
      3.45500000	    -33.69977570	     -0.15005014	      2.60111081	     -0.39322766	      0.59285727	     -0.89805574	     98.40320580	     -9.62849406	      4.80139713	    109.93623281	      1.91874923	     44.87252653	      0.00000000	      0.00000000	    100.24822115	    -16.09199971	      1.39389269	    109.36201374	      1.90872722	     41.67345764	      0.00000000	      0.00000000	    -21.17260915	     -2.75077785	     -0.61042027	     -9.27573460	    -45.49915585	     52.81555124	     84.97496960	     87.87660563	      0.00000000	      0.00000000	    -17.01656209	    -45.77726295	     45.44538938	     90.32270649	     87.90203422	      0.00000000	      0.00000000
      3.46000000	    -33.82506527	     -0.05325320	      2.78278214	     -0.39344505	      0.59265562	     -0.89859584	     98.58210454	     -9.85592834	      4.94575327	    109.94218469	      1.91885311	     44.96111062	      0.00000000	      0.00000000	    100.32554159	    -15.84004538	      1.26235536	    109.30570477	      1.90774444	     41.68454114	      0.00000000	      0.00000000	    -21.09825904	     -2.77122336	     -0.74274478	     -9.96432779	    -45.44368330	     51.86102075	     85.22899770	     87.83898611	      0.00000000	      0.00000000	    -17.27506549	    -45.71850561	     45.00301922	     90.52147708	     87.88304609	      0.00000000	      0.00000000
      3.46500000	    -33.75160115	     -0.07427655	      2.76654561	     -0.39327206	      0.59293436	     -0.89864175	     98.46892359	     -9.86193106	      4.90710364	    109.93107359	      1.91865918	     44.87664174	      0.00000000	      0.00000000	    100.23378505	    -15.85278342	      1.26528005	    109.30182884	      1.90767679	     41.73334950	      0.00000000	      0.00000000	    -21.11306865	     -2.74406893	     -0.73044638	     -9.52555507	    -45.46724442	     52.46880523	     84.94622522	     87.86630842	      0.00000000	      0.00000000	    -16.97321624	    -45.71407467	     45.43954905	     90.22388367	     87.89590715	      0.00000000	      0.00000000
      3.47000000	    -33.81125890	     -0.01581960	      2.72457792	     -0.39340751	      0.59292694	     -0.89866210	     98.55836385	     -9.78727379	      5.01528897	    109.91527583	      1.91838346	     44.81578548	      0.00000000	      0.00000000	    100.27703012	    -15.88872748	      1.20595629	    109.28834341	      1.90744143	     41.61097030	      0.00000000	      0.00000000	    -21.00689330	     -2.80360999	     -0.53983198	     -9.71481963	    -45.47688398	     52.34388913	     85.05574844	     87.87919319	      0.00000000	      0.00000000	    -16.40320639	    -45.88434592	     46.25001695	     90.27296210	     87.89189008	      0.00000000	      0.00000000
      3.47500000	    -33.95327224	     -0.04277133	      2.84018331	     -0.39366117	      0.59267619	     -0.89893280	     98.73072196	     -9.95771663	      4.97541258	    109.90364487	      1.91818046	     44.80941367	      0.00000000	      0.00000000	    100.44024729	    -15.72984248	      1.22497433	    109.25982654	      1.90694371	     41.63269054	      0.00000000	      0.00000000	    -20.85095835	     -2.73931547	     -0.61781777	     -9.80077729	    -45.48738552	     52.26599258	     85.06827734	     87.87464035	      0.00000000	      0.00000000	    -16.45531084	    -45.86772164	     46.17338797	     90.26998671	     87.89134527	      0.00000000	      0.00000000
      3.48000000	    -33.91238008	     -0.05463599	      2.76552831	     -0.39355319	      0.59277162	     -0.89874889	     98.66898043	     -9.86324141	      4.94736663	    109.88831445	      1.91791290	     44.82112739	      0.00000000	      0.00000000	    100.40804736	    -15.83107464	      1.24588445	    109.27820203	      1.90726443	     41.66548052	      0.00000000	      0.00000000	    -20.87961539	     -2.76377791	     -1.32945275	     -8.17783390	    -45.66543638	     54.14514025	     84.92014772	     87.86566442	      0.00000000	      0.00000000	    -18.13272536	    -45.42972154	     44.20200355	     90.28669887	     87.89394553	      0.00000000	      0.00000000
      3.48500000	    -33.97018640	     -0.11783240	      2.78597854	     -0.39368390	      0.59266428	     -0.89876959	     98.72155353	     -9.87892577	      4.89061647	    109.88459408	      1.91784796	     44.84361163	      0.00000000	      0.00000000	    100.50308175	    -15.80657336	      1.30634199	    109.26856419	      1.90709621	     41.63108634	      0.00000000	      0.00000000	    -20.79853597	     -2.69337368	     -1.24138075	     -8.33255824	    -45.67093870	     54.00607709	     84.95724364	     87.83567712	      0.00000000	      0.00000000	    -17.99641502	    -45.53054628	     44.39172596	     90.38655172	     87.86865514	      0.00000000	      0.00000000
      3.49000000	    -34.02593779	     -0.10545864	      2.77519123	     -0.39373877	      0.59262915	     -0.89882248	     98.78483159	     -9.87616130	      4.91699377	    109.88095526	      1.91778445	     44.77700699	      0.00000000	      0.00000000	    100.56385937	    -15.79597918	      1.29181289	    109.26162494	      1.90697510	     41.57789822	      0.00000000	      0.00000000	    -20.71463228	     -2.70416096	     -1.18062069	     -8.44255862	    -45.63243930	     53.86355362	     84.91448869	     87.86385341	      0.00000000	      0.00000000	    -17.86139319	    -45.53303280	     44.56077718	     90.32035338	     87.89614063	      0.00000000	      0.00000000
      3.49500000	    -34.19468186	     -0.04387157	      2.73208644	     -0.39401211	      0.59221463	     -0.89873428	     99.01968721	     -9.81032683	      4.99432381	    109.88127068	      1.91778996	     44.81600297	      0.00000000	      0.00000000	    100.75547759	    -15.83803447	      1.24535039	    109.27604164	      1.90722672	     41.56588956	      0.00000000	      0.00000000	    -20.52210249	     -2.79879021	     -1.13011901	     -8.65131468	    -45.58982556	     53.61358113	     84.93440102	     87.85253580	      0.00000000	      0.00000000	    -17.93436878	    -45.53865166	     44.46780093	     90.33008723	     87.89551454	      0.00000000	      0.00000000
      3.50000000	    -34.43174180	     -0.09480531	      2.76745892	     -0.39443063	      0.59179428	     -0.89884706	     99.30216228	     -9.83704841	      4.98992743	    109.87281169	      1.91764232	     44.71395027	      0.00000000	      0.00000000	    101.05815294	    -15.77362353	      1.30289330	    109.28382857	      1.90736263	     41.49980956	      0.00000000	      0.00000000	    -20.24179881	     -2.73768861	     -1.11072434	     -8.82295161	    -45.61048516	     53.44963703	     85.02677735	     87.85577778	      0.00000000	      0.00000000	    -17.94268348	    -45.55476948	     44.47704963	     90.39335505	     87.89429108	      0.00000000	      0.00000000
      3.50500000	    -34.40479272	     -0.10334853	      2.82190617	     -0.39444224	      0.59183003	     -0.89901386	     99.27049619	     -9.91349731	      4.98045495	    109.87048316	      1.91760168	     44.73776918	      0.00000000	      0.00000000	    101.03024697	    -15.69679272	      1.29908160	    109.23978693	      1.90659396	     41.52964851	      0.00000000	      0.00000000	    -20.24516493	     -2.69739282	     -1.10587437	     -8.81265820	    -45.63021625	     53.48812697	     85.02547579	     87.86050854	      0.00000000	      0.00000000	    -17.73144045	    -45.61618836	     44.76392974	     90.38579817	     87.90618169	      0.00000000	      0.00000000
      3.51000000	    -34.25999240	     -0.11452576	      2.86589705	     -0.39411994	      0.59221143	     -0.89915893	     99.04241077	     -9.98832599	      4.96953784	    109.83442885	      1.91697242	     45.20364488	      0.00000000	      0.00000000	    100.80819110	    -15.65226216	      1.28205665	    109.22746264	      1.90637886	     41.71540229	      0.00000000	      0.00000000	    -20.41354162	     -2.65488492	     -1.08881089	     -9.00923021	    -45.56939441	     53.20109375	     84.97258701	     87.67971805	      0.00000000	      0.00000000	    -17.70152928	    -45.57236114	     44.75341900	     90.30066889	     87.75096360	      0.00000000	      0.00000000
      3.51500000	    -34.34998620	     -0.23406942	      2.72700935	     -0.39432919	      0.59200780	     -0.89878397	     99.15296987	     -9.80077981	      4.81732516	    109.83317956	      1.91695061	     44.72295187	      0.00000000	      0.00000000	    101.01791903	    -15.81925303	      1.45903963	    109.26163756	      1.90697532	     41.53156430	      0.00000000	      0.00000000	    -20.26804234	     -2.60060209	     -0.76671783	     -9.18467880	    -45.57445823	     53.04975969	     85.01360975	     87.87288267	      0.00000000	      0.00000000	    -17.23425323	    -45.71275419	     45.32982354	     90.31383961	     87.90389575	      0.00000000	      0.00000000
